<?xml version="1.0" encoding="UTF-8" standalone="no" ?>
<svg xmlns="http://www.w3.org/2000/svg" xmlns:xlink="http://www.w3.org/1999/xlink" version="1.1" width="450" height="450" viewBox="52.5 52.5 450 450" xml:space="preserve">
<desc>Created with Fabric.js 5.2.4</desc>
<defs>
</defs>
<rect x="0" y="0" width="100%" height="100%" fill="transparent"></rect>
<g transform="matrix(0 0 0 0 0 0)" id="05bf10e3-3e2d-4efa-842f-2eb12780229c"  >
</g>
<g transform="matrix(1 0 0 1 225 225)" id="a26e56ea-34a9-48d7-9bb1-9a98771ae107"  >
<rect style="stroke: none; stroke-width: 1; stroke-dasharray: none; stroke-linecap: butt; stroke-dashoffset: 0; stroke-linejoin: miter; stroke-miterlimit: 4; fill: rgb(255,255,255); fill-rule: nonzero; opacity: 1; visibility: hidden;" vector-effect="non-scaling-stroke"  x="-225" y="-225" rx="0" ry="0" width="450" height="450" />
</g>
<g transform="matrix(2.64 0 0 2.57 278.92 273.38)"  >
<g style="" vector-effect="non-scaling-stroke"   >
		<g transform="matrix(1 0 0 1 40.71 -10.57)"  >
<path style="stroke: none; stroke-width: 1; stroke-dasharray: none; stroke-linecap: butt; stroke-dashoffset: 0; stroke-linejoin: miter; stroke-miterlimit: 4; fill: rgb(255,255,255); fill-rule: nonzero; opacity: 1;" vector-effect="non-scaling-stroke"  transform=" translate(-147.39, -92.3)" d="M 151.583 102.757 C 145.808 102.775 141.113 98.1086 141.095 92.3339 C 141.077 86.5593 145.744 81.864 151.518 81.8462 C 153.87 81.8389 156.046 82.6114 157.799 83.9144 L 164.042 75.533 C 160.544 72.9182 156.19 71.3762 151.489 71.3936 C 139.94 71.4292 130.607 80.8197 130.642 92.369 C 130.678 103.918 140.068 113.251 151.618 113.216 C 156.322 113.201 160.663 111.635 164.145 108.999 L 157.851 100.656 C 156.105 101.97 153.935 102.756 151.583 102.763 L 151.583 102.757 Z" stroke-linecap="round" />
</g>
		<g transform="matrix(1 0 0 1 40.6 18.17)"  >
<path style="stroke: none; stroke-width: 1; stroke-dasharray: none; stroke-linecap: butt; stroke-dashoffset: 0; stroke-linejoin: miter; stroke-miterlimit: 4; fill: rgb(255,255,255); fill-rule: nonzero; opacity: 1;" vector-effect="non-scaling-stroke"  transform=" translate(-147.28, -121.04)" d="M 170.442 117.333 C 165.218 121.292 158.706 123.644 151.647 123.662 C 139.992 123.698 129.805 117.379 124.372 107.963 C 122.52 111.188 120.324 114.218 117.81 117.001 C 125.431 127.418 137.769 134.164 151.679 134.118 C 161.1 134.089 169.767 130.948 176.748 125.681 L 170.442 117.327 L 170.442 117.333 Z" stroke-linecap="round" />
</g>
		<g transform="matrix(1 0 0 1 -38.76 5.37)"  >
<path style="stroke: none; stroke-width: 1; stroke-dasharray: none; stroke-linecap: butt; stroke-dashoffset: 0; stroke-linejoin: miter; stroke-miterlimit: 4; fill: rgb(255,255,255); fill-rule: nonzero; opacity: 1;" vector-effect="non-scaling-stroke"  transform=" translate(-67.92, -108.24)" d="M 78.3617 92.5271 C 84.1363 92.5093 88.8028 87.814 88.785 82.0394 C 88.7672 76.2647 84.0719 71.5983 78.2973 71.616 C 73.2812 71.6315 57.3862 71.6804 57.3862 71.6804 L 57.354 61.2249 C 57.354 61.2249 69.018 61.186 78.2621 61.1576 C 89.8114 61.122 99.202 70.4549 99.2376 82.0042 C 99.2732 93.5535 89.9402 102.944 78.3909 102.98 C 74.2452 102.992 58.0562 103.042 47.0978 103.073 L 47.2586 155.286 L 36.8031 155.318 L 36.6423 103.105 L 36.6101 92.6498 C 36.6101 92.6498 72.5635 92.5391 78.3558 92.5212 L 78.3617 92.5271 Z" stroke-linecap="round" />
</g>
		<g transform="matrix(1 0 0 1 10.35 -0.03)"  >
<path style="stroke: none; stroke-width: 1; stroke-dasharray: none; stroke-linecap: butt; stroke-dashoffset: 0; stroke-linejoin: miter; stroke-miterlimit: 4; fill: rgb(255,255,255); fill-rule: nonzero; opacity: 1;" vector-effect="non-scaling-stroke"  transform=" translate(-117.03, -102.85)" d="M 79.1698 113.38 C 95.0295 113.331 108.107 101.518 110.156 86.2251 C 113.069 66.0341 130.41 50.4913 151.416 50.4266 C 160.83 50.3976 169.525 53.4816 176.533 58.7114 L 170.285 67.0987 C 165.033 63.1749 158.51 60.8604 151.451 60.8851 C 135.685 60.9336 122.675 72.6025 120.502 87.7604 C 117.712 108.086 100.307 123.776 79.202 123.841 L 68.0055 123.876 L 68.0962 155.237 L 57.6407 155.269 L 57.5178 113.453 L 79.1698 113.386 L 79.1698 113.38 Z" stroke-linecap="round" />
</g>
</g>
</g>
</svg>